<svg width="24" height="23" viewBox="0 0 24 23" fill="none" xmlns="http://www.w3.org/2000/svg">
<path fill-rule="evenodd" clip-rule="evenodd" d="M11.9444 0C5.59377 0 0.444443 5.27768 0.444443 11.7926C0.444443 17.0036 3.74042 21.4187 8.30962 22.9795C8.88462 23.0873 9.09511 22.7228 9.09511 22.4096C9.09511 22.1272 9.08484 21.3879 9.07971 20.4022C5.88127 21.1158 5.20359 18.821 5.20359 18.821C4.67993 17.4605 3.92525 17.096 3.92525 17.096C2.88306 16.3618 4.00226 16.3772 4.00226 16.3772C5.15739 16.4594 5.76319 17.594 5.76319 17.594C6.78998 19.396 8.45337 18.8775 9.11051 18.5746C9.21319 17.8147 9.51096 17.2911 9.83953 16.9984C7.28797 16.7007 4.60293 15.6893 4.60293 11.1714C4.60293 9.88281 5.04958 8.83036 5.78373 8.00893C5.66565 7.71116 5.27034 6.50982 5.89667 4.8875C5.89667 4.8875 6.86185 4.5692 9.05918 6.09397C9.97815 5.83214 10.9587 5.70379 11.9393 5.69866C12.9148 5.70379 13.9005 5.83214 14.8194 6.09397C17.0168 4.5692 17.9768 4.8875 17.9768 4.8875C18.6031 6.50982 18.2078 7.71116 18.0898 8.00893C18.8239 8.83549 19.2706 9.88795 19.2706 11.1714C19.2706 15.6996 16.5804 16.6955 14.0186 16.9882C14.4293 17.3527 14.7989 18.0714 14.7989 19.1701C14.7989 20.7462 14.7835 22.0194 14.7835 22.4045C14.7835 22.7176 14.9889 23.0873 15.5741 22.9692C20.1536 21.4136 23.4444 16.9984 23.4444 11.7926C23.4444 5.27768 18.2951 0 11.9444 0Z" fill="white"/>
</svg>
