<svg width="23" height="23" viewBox="0 0 23 23" fill="none" xmlns="http://www.w3.org/2000/svg">
<path d="M22.7783 9.34535C19.0972 9.34357 15.4161 9.34446 11.735 9.34488C11.7355 10.8411 11.7332 12.3373 11.7359 13.833C13.8678 13.8326 15.9996 13.8321 18.131 13.833C17.884 15.2668 17.0145 16.5779 15.7814 17.3851C15.0063 17.8958 14.1158 18.2273 13.1976 18.3849C12.2736 18.5395 11.3188 18.5592 10.3971 18.3764C9.45971 18.1931 8.56496 17.8104 7.78441 17.271C6.5363 16.4117 5.58379 15.1545 5.09473 13.7395C4.59465 12.3004 4.59098 10.6991 5.09702 9.2613C5.44814 8.24795 6.03255 7.31187 6.80027 6.5501C7.74725 5.60009 8.97842 4.92095 10.3049 4.64246C11.4407 4.40486 12.6384 4.4502 13.7504 4.77988C14.6956 5.06109 15.5669 5.56863 16.2806 6.23654C17.0021 5.53357 17.7198 4.82658 18.44 4.1223C18.8176 3.74321 19.2146 3.38071 19.5804 2.99129C18.4867 1.9995 17.2047 1.20224 15.8039 0.698255C13.282 -0.211276 10.4378 -0.230581 7.89898 0.630524C5.03787 1.5904 2.60167 3.68712 1.25091 6.33727C0.780643 7.25045 0.437302 8.22514 0.23105 9.22769C-0.287826 11.7255 0.0738321 14.3887 1.24953 16.6638C2.01363 18.1487 3.1091 19.4688 4.43791 20.5037C5.69155 21.4834 7.15277 22.207 8.70205 22.6108C10.657 23.1247 12.7379 23.113 14.7057 22.6742C16.4841 22.273 18.1668 21.4403 19.5102 20.2248C20.9303 18.946 21.9432 17.2611 22.4795 15.4505C23.0644 13.4755 23.145 11.3671 22.7783 9.34535Z" fill="white"/>
</svg>
