<svg width="200" height="201" viewBox="0 0 200 201" fill="none" xmlns="http://www.w3.org/2000/svg">
<path fill-rule="evenodd" clip-rule="evenodd" d="M185.853 126C187.932 125.817 192.13 126.201 196.124 128.658C196.92 129.147 197.589 129.882 197.982 130.808C198.999 133.204 200.293 138.161 199.47 143.924C198.183 152.934 195.972 160.304 192.396 167.001C188.825 173.69 183.968 179.564 177.571 185.67C173.54 189.519 158.002 201 136 201H102C99.2386 201 97 198.761 97 196V180.984C97 180.19 97.187 179.436 97.5152 178.761C97.9354 177.897 98.425 176.743 99.0121 175.359C102.378 167.426 108.945 151.946 123.997 140.257C128.587 135.603 142.238 127.227 163.83 126.005L163.915 126H185.853ZM192.619 133.555C189.908 132.019 187.164 131.889 186.331 131.982L186.166 132H164.086C143.754 133.171 131.599 141.07 128.244 144.496C128.08 144.662 127.907 144.817 127.718 144.963C114.018 155.584 108.115 169.374 104.65 177.467C104.033 178.909 103.493 180.171 103 181.201V195H136C155.998 195 170.127 184.481 173.429 181.33C179.532 175.504 183.925 170.128 187.104 164.175C190.278 158.23 192.317 151.566 193.53 143.076C194.124 138.921 193.277 135.319 192.619 133.555Z" fill="black"/>
<path fill-rule="evenodd" clip-rule="evenodd" d="M13.878 126C11.799 125.817 7.60173 126.201 3.60753 128.658C2.81145 129.147 2.14274 129.882 1.74949 130.808C0.732162 133.204 -0.561699 138.161 0.261597 143.924C1.54875 152.934 3.75907 160.304 7.33504 167.001C10.9064 173.69 15.763 179.564 22.16 185.67C26.1919 189.519 41.7292 201 63.7314 201H97.7314C100.493 201 102.731 198.761 102.731 196V180.984C102.731 180.19 102.544 179.436 102.216 178.761C101.796 177.897 101.306 176.743 100.719 175.359C97.3537 167.426 90.7864 151.946 75.7345 140.257C71.1442 135.603 57.4937 127.227 35.901 126.005L35.8163 126H13.878ZM7.11284 133.555C9.82388 132.019 12.5679 131.889 13.4002 131.982L13.5653 132H35.6459C55.9771 133.171 68.1324 141.07 71.4879 144.496C71.651 144.662 71.824 144.817 72.013 144.963C85.713 155.584 91.6167 169.374 95.0815 177.467C95.6988 178.909 96.2387 180.171 96.7314 181.201V195H63.7314C43.7337 195 29.6043 184.481 26.3029 181.33C20.1999 175.504 15.8064 170.128 12.6278 164.175C9.45382 158.23 7.41414 151.566 6.20129 143.076C5.60771 138.921 6.4545 135.319 7.11284 133.555Z" fill="black"/>
<path fill-rule="evenodd" clip-rule="evenodd" d="M100 70C107.18 70 113 64.1797 113 57C113 49.8203 107.18 44 100 44C92.8203 44 87 49.8203 87 57C87 64.1797 92.8203 70 100 70ZM100 76C110.493 76 119 67.4934 119 57C119 46.5066 110.493 38 100 38C89.5066 38 81 46.5066 81 57C81 67.4934 89.5066 76 100 76Z" fill="black"/>
<path fill-rule="evenodd" clip-rule="evenodd" d="M80.2844 7.6527C73.5774 5.93424 65.4648 6.8036 56.9794 14.2542L56.9178 14.3083L56.8534 14.3589C55.6496 15.3047 54.0535 17.2847 52.651 20.1398C51.2723 22.9463 50.1791 26.4021 49.8239 30.1366C49.1232 37.5013 51.2662 46.0072 60.0341 53.067C67 58 64 58 59.8129 61.732C52.9237 66.927 45.9446 79.8045 52.6823 94.1541C54.588 97.7059 60.0968 103.693 67.7184 106.061C75.0424 108.337 84.8534 107.435 96.0217 96.3077C98 93.5 100 89.5 103.866 96.7861C107.268 100.989 113.698 105.366 121.038 106.782C128.197 108.163 136.203 106.741 143.312 99.4463C145.299 97.2368 148.857 91.1079 149.555 83.8535C150.232 76.8077 148.235 68.6882 139.101 61.8787C135.24 59 132 57 139.163 53.2256C143.568 49.9713 147.967 44.3214 149.504 37.5831C151 31.0233 149.855 23.1631 142.785 15.0247C133.113 4.99045 115.725 4.31547 104.225 17.9452C100.5 23.5 99.5 23.5 95.8804 17.7908C92.8518 14.0119 87.1874 9.42137 80.2844 7.6527ZM100.127 13.5084C96.3849 9.05697 89.8684 3.91449 81.7736 1.84045C73.176 -0.362415 63.0444 0.973605 53.0788 9.69454C50.9603 11.3836 48.8943 14.179 47.2657 17.4943C45.5958 20.8935 44.2807 25.0495 43.8508 29.5684C42.9961 38.5529 45.6658 48.9138 55.7351 57.3014C47.2483 64.0338 39.1755 79.6037 47.2871 96.7804L47.3163 96.8424L47.3484 96.9029C49.8579 101.643 56.5522 108.874 65.938 111.791C75.5128 114.766 87.3563 113.093 99.6757 101.13C104.012 106.187 111.436 111.041 119.902 112.673C128.853 114.4 138.986 112.511 147.652 103.59L147.686 103.554L147.719 103.517C150.524 100.433 154.695 93.0799 155.527 84.4279C156.366 75.7115 153.794 65.688 143.354 57.576C148.512 53.5498 153.523 46.9416 155.354 38.9176C157.295 30.4053 155.587 20.5782 147.261 11.028L147.215 10.9747L147.166 10.9236C135.119 -1.64622 113.905 -2.22126 100.127 13.5084Z" fill="black"/>
<path fill-rule="evenodd" clip-rule="evenodd" d="M97 201V101H103V201H97Z" fill="black"/>
</svg>
