<svg width="200" height="201" viewBox="0 0 200 201" fill="none" xmlns="http://www.w3.org/2000/svg">
<path fill-rule="evenodd" clip-rule="evenodd" d="M185.853 125.094C187.932 124.911 192.13 125.295 196.124 127.752C196.92 128.242 197.589 128.977 197.982 129.903C198.999 132.298 200.293 137.255 199.47 143.018C198.183 152.029 195.972 159.398 192.396 166.095C188.825 172.784 183.968 178.658 177.571 184.764C173.54 188.613 158.002 200.094 136 200.094H102C99.2386 200.094 97 197.856 97 195.094V180.078C97 179.284 97.187 178.53 97.5152 177.856C97.9354 176.991 98.425 175.837 99.0121 174.453C102.378 166.52 108.945 151.04 123.997 139.351C128.587 134.697 142.238 126.321 163.83 125.099L163.915 125.094H185.853ZM192.619 132.649C189.908 131.113 187.164 130.983 186.331 131.076L186.166 131.094H164.086C143.754 132.265 131.599 140.164 128.244 143.59C128.08 143.756 127.907 143.911 127.718 144.058C114.018 154.678 108.115 168.468 104.65 176.562C104.033 178.004 103.493 179.265 103 180.295V194.094H136C155.998 194.094 170.127 183.576 173.429 180.424C179.532 174.599 183.925 169.222 187.104 163.269C190.278 157.325 192.317 150.66 193.53 142.17C194.124 138.015 193.277 134.413 192.619 132.649Z" fill="white"/>
<path fill-rule="evenodd" clip-rule="evenodd" d="M13.878 125.094C11.799 124.911 7.60173 125.295 3.60753 127.752C2.81145 128.242 2.14274 128.977 1.74949 129.903C0.732162 132.298 -0.561699 137.255 0.261597 143.018C1.54875 152.029 3.75907 159.398 7.33504 166.095C10.9064 172.784 15.763 178.658 22.16 184.764C26.1919 188.613 41.7292 200.094 63.7314 200.094H97.7314C100.493 200.094 102.731 197.856 102.731 195.094V180.078C102.731 179.284 102.544 178.53 102.216 177.856C101.796 176.991 101.306 175.837 100.719 174.453C97.3537 166.52 90.7864 151.04 75.7345 139.351C71.1442 134.697 57.4937 126.321 35.901 125.099L35.8163 125.094H13.878ZM7.11284 132.649C9.82388 131.113 12.5679 130.983 13.4002 131.076L13.5653 131.094H35.6459C55.9771 132.265 68.1324 140.164 71.4879 143.59C71.651 143.756 71.824 143.911 72.013 144.058C85.713 154.678 91.6167 168.468 95.0815 176.562C95.6988 178.004 96.2387 179.265 96.7314 180.295V194.094H63.7314C43.7337 194.094 29.6043 183.576 26.3029 180.424C20.1999 174.599 15.8064 169.222 12.6278 163.269C9.45382 157.325 7.41414 150.66 6.20129 142.17C5.60771 138.015 6.4545 134.413 7.11284 132.649Z" fill="white"/>
<path fill-rule="evenodd" clip-rule="evenodd" d="M100 69.0942C107.18 69.0942 113 63.2739 113 56.0942C113 48.9145 107.18 43.0942 100 43.0942C92.8203 43.0942 87 48.9145 87 56.0942C87 63.2739 92.8203 69.0942 100 69.0942ZM100 75.0942C110.493 75.0942 119 66.5876 119 56.0942C119 45.6008 110.493 37.0942 100 37.0942C89.5066 37.0942 81 45.6008 81 56.0942C81 66.5876 89.5066 75.0942 100 75.0942Z" fill="white"/>
<path fill-rule="evenodd" clip-rule="evenodd" d="M80.2844 6.74694C73.5774 5.02848 65.4648 5.89783 56.9794 13.3485L56.9178 13.4025L56.8534 13.4531C55.6496 14.399 54.0535 16.379 52.651 19.2341C51.2723 22.0405 50.1791 25.4964 49.8239 29.2308C49.1232 36.5955 51.2662 45.1015 60.0341 52.1613C67 57.0942 64 57.0942 59.8129 60.8262C52.9237 66.0213 45.9446 78.8987 52.6823 93.2483C54.588 96.8001 60.0968 102.787 67.7184 105.155C75.0424 107.431 84.8534 106.529 96.0217 95.4019C98 92.5942 100 88.5942 103.866 95.8803C107.268 100.084 113.698 104.461 121.038 105.876C128.197 107.257 136.203 105.835 143.312 98.5405C145.299 96.331 148.857 90.2021 149.555 82.9477C150.232 75.9019 148.235 67.7825 139.101 60.9729C135.24 58.0942 132 56.0942 139.163 52.3198C143.568 49.0655 147.967 43.4157 149.504 36.6774C151 30.1175 149.855 22.2573 142.785 14.119C133.113 4.08469 115.725 3.40971 104.225 17.0395C100.5 22.5942 99.5 22.5942 95.8804 16.8851C92.8518 13.1062 87.1874 8.51561 80.2844 6.74694ZM100.127 12.6026C96.3849 8.15121 89.8684 3.00872 81.7736 0.934684C73.176 -1.26818 63.0444 0.0678434 53.0788 8.78878C50.9603 10.4778 48.8943 13.2732 47.2657 16.5886C45.5958 19.9878 44.2807 24.1437 43.8508 28.6626C42.9961 37.6472 45.6658 48.0081 55.7351 56.3956C47.2483 63.1281 39.1755 78.698 47.2871 95.8746L47.3163 95.9366L47.3484 95.9972C49.8579 100.738 56.5522 107.969 65.938 110.885C75.5128 113.86 87.3563 112.187 99.6757 100.224C104.012 105.282 111.436 110.135 119.902 111.768C128.853 113.494 138.986 111.605 147.652 102.684L147.686 102.648L147.719 102.612C150.524 99.5275 154.695 92.1742 155.527 83.5222C156.366 74.8058 153.794 64.7823 143.354 56.6702C148.512 52.6441 153.523 46.0358 155.354 38.0118C157.295 29.4996 155.587 19.6724 147.261 10.1222L147.215 10.0689L147.166 10.0179C135.119 -2.55198 113.905 -3.12703 100.127 12.6026Z" fill="white"/>
<path fill-rule="evenodd" clip-rule="evenodd" d="M97 200.094V100.094H103V200.094H97Z" fill="white"/>
</svg>
