<svg width="26" height="18" viewBox="0 0 26 18" fill="none" xmlns="http://www.w3.org/2000/svg">
<g clip-path="url(#clip0_8240_32)">
<path d="M25.4599 2.81639C25.1608 1.7078 24.2796 0.834703 23.1607 0.538406C21.1326 0 13.0001 0 13.0001 0C13.0001 0 4.86776 0 2.83961 0.538406C1.72071 0.83475 0.839472 1.7078 0.540377 2.81639C-0.00305176 4.82578 -0.00305176 9.01819 -0.00305176 9.01819C-0.00305176 9.01819 -0.00305176 13.2106 0.540377 15.22C0.839472 16.3286 1.72071 17.1653 2.83961 17.4616C4.86776 18 13.0001 18 13.0001 18C13.0001 18 21.1325 18 23.1607 17.4616C24.2796 17.1653 25.1608 16.3286 25.4599 15.22C26.0033 13.2106 26.0033 9.01819 26.0033 9.01819C26.0033 9.01819 26.0033 4.82578 25.4599 2.81639ZM10.3404 12.8246V5.2118L17.1375 9.01828L10.3404 12.8246Z" fill="white"/>
</g>
<defs>
<clipPath id="clip0_8240_32">
<rect width="26" height="18" fill="white"/>
</clipPath>
</defs>
</svg>
